<svg xmlns="http://www.w3.org/2000/svg" viewBox="0 0 128 128" width="128" height="128">
  <rect width="128" height="128" rx="14" fill="#ffffff"/>
  <rect x="40" y="40" width="48" height="48" rx="4" fill="#5b6b73"/>
  <rect x="50" y="50" width="28" height="28" rx="2" fill="#cfd8dc"/>
  <g stroke="#5b6b73" stroke-width="4">
    <line x1="54" y1="20" x2="54" y2="40"/>
    <line x1="64" y1="20" x2="64" y2="40"/>
    <line x1="74" y1="20" x2="74" y2="40"/>
    <line x1="54" y1="88" x2="54" y2="108"/>
    <line x1="64" y1="88" x2="64" y2="108"/>
    <line x1="74" y1="88" x2="74" y2="108"/>
    <line x1="20" y1="54" x2="40" y2="54"/>
    <line x1="20" y1="64" x2="40" y2="64"/>
    <line x1="20" y1="74" x2="40" y2="74"/>
    <line x1="88" y1="54" x2="108" y2="54"/>
    <line x1="88" y1="64" x2="108" y2="64"/>
    <line x1="88" y1="74" x2="108" y2="74"/>
  </g>
  <text x="64" y="68" font-family="monospace" font-size="11" fill="#37474f" text-anchor="middle">ASM</text>
</svg>
