<svg xmlns="http://www.w3.org/2000/svg" viewBox="0 0 128 128" width="128" height="128">
  <rect width="128" height="128" rx="14" fill="#ffffff"/>
  <g fill="#369CE4">
    <rect x="33" y="58" width="11" height="10"/>
    <rect x="46" y="58" width="11" height="10"/>
    <rect x="59" y="58" width="11" height="10"/>
    <rect x="72" y="58" width="11" height="10"/>
    <rect x="46" y="46" width="11" height="10"/>
    <rect x="59" y="46" width="11" height="10"/>
    <rect x="72" y="46" width="11" height="10"/>
    <rect x="59" y="34" width="11" height="10"/>
  </g>
  <path fill="#369CE4" d="M100.5 60.6c-1.4-1-4.7-1.4-7.2-.9-.3-2.4-1.6-4.5-3.9-6.4l-1.3-1-.9 1.3c-1.1 1.7-1.7 4-1.5 6.2.1 1 .5 2.7 1.5 4.1-1 .6-2.9 1.3-5.5 1.3H21.8l-.1.8c-.3 3.4.1 7 1.2 10.1 1.6 4.5 4.2 7.8 7.5 9.6 3.8 2.1 9.9 3.2 16.9 3.2 3.2 0 6.5-.2 9.7-.7 4.5-.7 8.9-2 12.9-3.9 3.4-1.6 6.4-3.6 8.9-6 4-3.9 6.4-8.3 8.1-12.2h.7c4.3 0 7-1.7 8.4-3.1 1-1 1.7-2.1 2.3-3.7l.3-.9-1.1-.8z"/>
</svg>
