<svg xmlns="http://www.w3.org/2000/svg" viewBox="0 0 128 128" width="128" height="128">
  <rect width="128" height="128" rx="14" fill="#ffffff"/>
  <path fill="#000000" d="M21.6 73.5c0-12.6 8-21.4 20.1-21.4 11.7 0 18.8 8.2 18.8 21.1v2.9H30.1c.4 6.8 4.6 11 11 11 4.3 0 7.4-1.7 9-4.8h9.2c-2.3 7.5-9.2 12-18.3 12-12.5 0-19.4-8.4-19.4-20.8zm9.6-4.4h19.5c-.3-6-4.1-9.8-9.6-9.8-5.4 0-9.4 3.9-9.9 9.8z"/>
  <path fill="#000000" d="M59.8 53.1h10.4l8.6 12.8 8.6-12.8H97l-13.5 19.6L97.4 93H87l-9-13.3L69 93H58.5l13.8-20.3z"/>
  <path fill="#000000" d="M96.4 80.7h9c.5 3.7 3.3 5.9 8 5.9 4.3 0 7-1.7 7-4.5 0-2.5-1.8-3.6-6.9-4.6l-5.5-1.1c-7.2-1.4-11.1-5-11.1-10.9 0-7.3 6.2-12.4 15.5-12.4 9.6 0 15.6 4.8 16.3 12.6h-8.8c-.5-3.3-3-5.2-7.4-5.2-4 0-6.6 1.7-6.6 4.3 0 2.2 1.7 3.4 6.4 4.3l5.5 1.1c7.7 1.5 11.6 4.9 11.6 11 0 7.7-6.6 12.8-16.6 12.8-10.3 0-16.6-5-17.4-13.3z"/>
</svg>
