<svg xmlns="http://www.w3.org/2000/svg" viewBox="0 0 128 128" width="128" height="128">
  <rect width="128" height="128" rx="14" fill="#ffffff"/>
  <path fill="#326CE5" d="M64 18.5l3.6 1.3 28.9 10.5 3 1.1.6 3.1 5.5 30.3.6 3.2-1.9 2.6-19 25.9-2 2.7-3.3-.1-30.9-.1-3.3.1-2-2.7-19-25.9-1.9-2.6.6-3.2 5.5-30.3.6-3.1 3-1.1 28.9-10.5z"/>
  <g fill="#ffffff">
    <circle cx="64" cy="64" r="6.5"/>
    <path d="M64 40c-13.3 0-24 10.7-24 24s10.7 24 24 24 24-10.7 24-24-10.7-24-24-24zm0 6c2 0 3.9.3 5.6.9l-2.4 6.6c-1-.3-2.1-.5-3.2-.5-1.1 0-2.2.2-3.2.5l-2.4-6.6c1.7-.6 3.6-.9 5.6-.9zm-10.3 4.3l4.3 5.4c-1.6 1.4-2.8 3.2-3.5 5.2l-6.7-1.6c.9-3.5 3-6.6 5.9-9zm20.6 0c2.9 2.4 5 5.5 5.9 9l-6.7 1.6c-.7-2-1.9-3.8-3.5-5.2l4.3-5.4zM50.1 65.9l6.7-1.5c.3 2.1 1.2 4 2.5 5.6l-5 5c-2.4-2.4-4.1-5.6-4.2-9.1zm28 0c-.1 3.5-1.8 6.7-4.2 9.1l-5-5c1.3-1.6 2.2-3.5 2.5-5.6l6.7 1.5zm-21.6 13.4l5-5c1.6 1 3.5 1.6 5.5 1.6 2 0 3.9-.6 5.5-1.6l5 5c-2.9 2.3-6.5 3.7-10.5 3.7s-7.6-1.4-10.5-3.7z"/>
  </g>
</svg>
