<svg xmlns="http://www.w3.org/2000/svg" viewBox="0 0 128 128" width="128" height="128">
  <rect width="128" height="128" rx="14" fill="#ffffff"/>
  <path fill="#4FAA41" d="M64.6 24.6s14.9 13.6 14.9 36.2c0 17.5-11.5 28.7-11.5 28.7s.6-3.9.6-9.5c0-19.8-14-43.6-14-43.6s-1.5 9.4-1.5 19.2c0 21.1 13.3 35.9 13.3 35.9s-2.8 1.5-6.6 1.5-6.7-1.5-6.7-1.5-12.6-15.1-12.6-35.6c0-19.5 12.6-31.3 12.6-31.3s.4 3.3 1.2 6.8c1.1-3.8 10.3-6.8 10.3-6.8z"/>
  <path fill="#3F9C35" d="M62.4 88.4c0 4.6.5 14.8.5 14.8h2.6s.4-10.2.4-14.7c0 0-1.7.4-3.5 0z"/>
</svg>
