<svg xmlns="http://www.w3.org/2000/svg" viewBox="0 0 128 128" width="128" height="128">
  <path fill="#83CD29" d="M112.394 32.857l-44.5-25.7c-2.5-1.45-5.65-1.45-8.15 0l-44.5 25.7C12.744 34.357 11 37.42 11 40.32v51.42c0 2.9 1.744 5.963 4.244 7.463l44.5 25.7c2.5 1.45 5.65 1.45 8.15 0l44.5-25.7c2.5-1.5 4.244-4.563 4.244-7.463V40.32c.06-2.9-1.684-5.963-4.244-7.463z"/>
  <path fill="#FFFFFF" d="M64.06 96.97c-1.27 0-2.49-.34-3.59-.97l-11.4-6.75c-1.7-.95-.87-1.29-.31-1.48 2.27-.79 2.73-.97 5.15-2.35.25-.14.58-.09.84.06l8.76 5.2c.32.17.76.17 1.05 0l34.16-19.73c.32-.18.51-.51.51-.88V30.84c0-.38-.19-.71-.52-.89L64.55 10.24c-.32-.19-.74-.19-1.06 0L29.34 29.95c-.33.18-.53.53-.53.89v39.43c0 .36.2.7.53.87l9.36 5.41c5.08 2.54 8.19-.45 8.19-3.46V34.18c0-.55.43-.97.98-.97h4.28c.53 0 .97.42.97.97v39.91c0 6.95-3.79 10.93-10.39 10.93-2.03 0-3.63 0-8.09-2.2l-8.96-5.16a7.23 7.23 0 0 1-3.59-6.25V30.84c0-2.58 1.37-4.98 3.59-6.27l34.21-19.74a7.55 7.55 0 0 1 7.18 0l34.16 19.74c2.22 1.29 3.59 3.69 3.59 6.27v39.43c0 2.58-1.37 4.97-3.59 6.27L67.65 96.27c-1.1.62-2.34.96-3.59.7z"/>
  <path fill="#FFFFFF" d="M75.49 73.98c-15.05 0-18.21-6.91-18.21-12.71 0-.55.43-.97.98-.97h4.36c.49 0 .9.35.97.84.66 4.46 2.62 6.71 11.9 6.71 7.39 0 10.52-1.67 10.52-5.6 0-2.26-.9-3.94-12.36-5.05-9.58-.95-15.51-3.06-15.51-10.71 0-7.07 5.95-11.28 15.93-11.28 11.21 0 16.74 3.89 17.44 12.25.03.28-.07.55-.25.75a.96.96 0 0 1-.71.32h-4.38c-.45 0-.85-.32-.95-.75-1.06-4.69-3.62-6.19-10.59-6.19-7.81 0-8.73 2.72-8.73 4.76 0 2.56.97 3.32 11.61 4.69 10.83 1.4 16.24 3.38 16.24 11.03 0 7.66-6.4 12.06-17.06 12.06z"/>
</svg>
